<?xml version="1.0" encoding="utf-8"?>
<!-- Generator: Adobe Illustrator 25.4.1, SVG Export Plug-In . SVG Version: 6.00 Build 0)  -->
<svg version="1.1" id="Layer_1" xmlns="http://www.w3.org/2000/svg" xmlns:xlink="http://www.w3.org/1999/xlink" x="0px" y="0px"
	 viewBox="0 0 3249.3 465.5" style="enable-background:new 0 0 3249.3 465.5;" xml:space="preserve">
<style type="text/css">
	.st0{fill:#50545D;}
	.st1{fill:#2DBBAB;}
</style>
<g id="Layer_2_00000134960049787861735510000001232805667353235616_">
	<g id="Layer_1-2">
		<path class="st0" d="M677.3,52.9c-9.4-5.2-21.3-1.8-26.5,7.7c0,0.1-0.1,0.1-0.1,0.2l-72.3,133l-72.3-133
			c-5.2-9.5-17.1-13-26.6-7.8c-9.5,5.2-12.9,17-7.8,26.5L558.9,240v159.7c-0.2,10.8,8.3,19.8,19.2,20c10.8,0.2,19.8-8.3,20-19.2
			c0-0.3,0-0.6,0-0.9V240l87.1-160.5c5.2-9.4,1.8-21.2-7.5-26.4C677.5,53,677.4,52.9,677.3,52.9z"/>
		<path class="st0" d="M2790.3,254.5c10.8-0.2,19.4-9.2,19.2-20c-0.2-10.5-8.7-18.9-19.2-19.2h-187.7V89.6h187.7
			c10.8,0,19.6-8.8,19.6-19.6s-8.8-19.6-19.6-19.6l0,0H2583c-10.8,0-19.6,8.8-19.6,19.6c0,0,0,0,0,0v329.6
			c0,10.8,8.8,19.6,19.6,19.6h207.3c10.8-0.2,19.4-9.2,19.2-20c-0.2-10.5-8.7-18.9-19.2-19.2h-187.7V254.5H2790.3z"/>
		<path class="st0" d="M3183.3,390.3l-100.2-188.6l98.1-119.2c6.9-8.4,5.7-20.7-2.7-27.6c-8.4-6.9-20.7-5.7-27.6,2.7l0,0l-184.3,224
			V70c0-10.8-8.8-19.6-19.6-19.6c-10.8,0-19.6,8.8-19.6,19.6l0,0v329.6c0,10.8,8.8,19.6,19.6,19.6c10.8,0,19.6-8.8,19.6-19.6v-56.4
			l89.6-108.9l92.7,174.6c5.3,9.4,17.2,12.8,26.7,7.5C3184.8,411.3,3188.3,399.7,3183.3,390.3L3183.3,390.3z"/>
		<path class="st0" d="M2426.2,50.4h-252.2c-10.8,0-19.6,8.8-19.6,19.6s8.8,19.6,19.6,19.6h106.5v310c0,10.8,8.8,19.6,19.6,19.6
			c10.8,0,19.6-8.8,19.6-19.6v-310h106.5c10.8,0,19.6-8.8,19.6-19.6S2437.1,50.4,2426.2,50.4L2426.2,50.4z"/>
		<path class="st0" d="M1491.7,50.4c-10.8,0-19.6,8.8-19.6,19.6v272.8L1248.9,58.1c-3.6-4.8-9.2-7.6-15.2-7.7
			c-10.8,0-19.6,8.8-19.6,19.6c0,0,0,0,0,0v329.6c-0.2,10.8,8.3,19.8,19.2,20c10.8,0.2,19.8-8.3,20-19.2c0-0.3,0-0.6,0-0.9V126.8
			l223.3,284.7c3.6,4.8,9.2,7.6,15.2,7.7c10.8,0,19.6-8.8,19.6-19.6c0,0,0,0,0,0V70C1511.3,59.2,1502.6,50.4,1491.7,50.4z"/>
		<path class="st0" d="M994.5,50.4H824.8c-10.8,0.2-19.4,9.2-19.2,20c0.2,10.5,8.7,18.9,19.2,19.2h169.7c34.7,0,62.8,28.1,62.8,62.8
			c0,0,0,0,0,0l0,0c0,34.7-28.1,62.8-62.8,62.8H824.8c-10.8,0-19.6,8.8-19.6,19.6c0,0,0,0,0,0v164.8c0,10.8,8.8,19.6,19.6,19.6
			c10.8,0,19.6-8.8,19.6-19.6V254.4h150.1c56.3,0,102-45.6,102-102l0,0C1096.5,96.1,1050.9,50.4,994.5,50.4
			C994.5,50.4,994.5,50.4,994.5,50.4z"/>
		<path class="st0" d="M332.2,50.4c-10.8,0-19.6,8.7-19.6,19.5c0,0,0,0,0,0.1v145.3H102.8V70c0.2-10.8-8.3-19.8-19.2-20
			c-10.8-0.2-19.8,8.3-20,19.2c0,0.3,0,0.6,0,0.9v329.7c0.2,10.8,9.2,19.4,20,19.2c10.5-0.2,18.9-8.7,19.2-19.2V254.4h209.8v145.3
			c0.2,10.8,9.2,19.4,20,19.2c10.5-0.2,18.9-8.7,19.2-19.2V70C351.8,59.2,343,50.4,332.2,50.4z"/>
		<path class="st1" d="M1852.4,11.2c-123.5,0-223.6,100.1-223.6,223.6s100.1,223.6,223.6,223.6S2076,358.3,2076,234.8
			S1975.8,11.2,1852.4,11.2z M1852.4,419.2c-101.8,0-184.3-82.5-184.3-184.3s82.6-184.5,184.3-184.5s184.4,82.6,184.4,184.5
			S1954.2,419.2,1852.4,419.2z"/>
		<path class="st1" d="M1852.4,166c-10.8,0-19.6,8.8-19.6,19.6c0,0,0,0,0,0v98.9c-0.2,10.8,8.3,19.8,19.2,20
			c10.8,0.2,19.8-8.3,20-19.2c0-0.3,0-0.6,0-0.9v-98.9C1872,174.8,1863.2,166,1852.4,166L1852.4,166z"/>
	</g>
</g>
</svg>
