<svg xmlns="http://www.w3.org/2000/svg" viewBox="0 0 399.56 399.56"><defs><style>.cls-1{fill:#2dbbab;}</style></defs><g id="Layer_2" data-name="Layer 2"><g id="Layer_1-2" data-name="Layer 1"><path class="cls-1" d="M199.78,0C89.46,0,0,89.46,0,199.78S89.46,399.56,199.78,399.56s199.78-89.47,199.78-199.78S310.09,0,199.78,0Zm0,364.47A164.67,164.67,0,0,1,35.08,199.78c0-91,73.76-164.78,164.7-164.78a164.74,164.74,0,1,1,0,329.47Z"/><path class="cls-1" d="M199.78,138.26a17.51,17.51,0,0,0-17.51,17.51v88.34a17.51,17.51,0,0,0,35,0V155.77A17.51,17.51,0,0,0,199.78,138.26Z"/></g></g></svg>