<svg xmlns="http://www.w3.org/2000/svg" viewBox="0 0 3249.28 465.46"><defs><style>.cls-1{fill:#50545d;}.cls-2{fill:#2dbbab;}</style></defs><g id="Layer_2" data-name="Layer 2"><g id="Layer_1-2" data-name="Layer 1"><path class="cls-1" d="M638.69,43.34a20.28,20.28,0,0,0-27.64,8.15L535.81,189.88,460.58,51.49A20.39,20.39,0,0,0,424.77,71l90.65,167.09V404.25a20.4,20.4,0,1,0,40.79,0V238.07L646.85,71A20.21,20.21,0,0,0,638.69,43.34Z"/><path class="cls-1" d="M2837.78,253.14a20.4,20.4,0,0,0,0-40.79H2642.46V81.61h195.32a20.4,20.4,0,0,0,0-40.8H2622.07a20.39,20.39,0,0,0-20.39,20.4V404.28a20.39,20.39,0,0,0,20.39,20.39h215.71a20.4,20.4,0,0,0,0-40.79H2642.46V253.14Z"/><path class="cls-1" d="M3246.81,394.54,3142.5,198.27l102.11-124.1a20.4,20.4,0,0,0-31.52-25.92L3021.33,281.33V61.21a20.39,20.39,0,1,0-40.78,0V404.28a20.39,20.39,0,0,0,40.78,0V345.56l93.21-113.29L3211,414a20.4,20.4,0,0,0,35.85-19.47Z"/><path class="cls-1" d="M2458.91,40.81H2196.48a20.4,20.4,0,0,0,0,40.8h110.83V404.28a20.39,20.39,0,0,0,40.78,0V81.61h110.82a20.4,20.4,0,0,0,0-40.8Z"/><path class="cls-1" d="M1486.33,40.8a20.4,20.4,0,0,0-20.4,20.39V345.13L1233.56,48.82a20.05,20.05,0,0,0-15.81-8,20.39,20.39,0,0,0-20.39,20.39V404.26a20.4,20.4,0,1,0,40.79,0V120.33l232.37,296.3a20,20,0,0,0,15.81,8,20.4,20.4,0,0,0,20.4-20.4V61.19A20.4,20.4,0,0,0,1486.33,40.8Z"/><path class="cls-1" d="M968.81,40.8H792.15a20.4,20.4,0,0,0,0,40.79H968.81A65.37,65.37,0,0,1,1034.18,147h0a65.37,65.37,0,0,1-65.37,65.37H792.15a20.39,20.39,0,0,0-20.39,20.4V404.27a20.4,20.4,0,0,0,40.8,0V253.13H968.81A106.17,106.17,0,0,0,1075,147h0A106.17,106.17,0,0,0,968.81,40.8Z"/><path class="cls-1" d="M279.5,40.77a20.35,20.35,0,0,0-20.38,20.39V212.34H40.77V61.16A20.39,20.39,0,1,0,0,61.16V404.3a20.39,20.39,0,0,0,40.77,0V253.11H259.12V404.3a20.39,20.39,0,0,0,40.77,0V61.16A20.42,20.42,0,0,0,279.5,40.77Z"/><path class="cls-2" d="M1861.65,0c-128.51,0-232.73,104.22-232.73,232.73s104.22,232.73,232.73,232.73,232.73-104.22,232.73-232.73S1990.16,0,1861.65,0Zm0,424.59c-105.93,0-191.86-85.83-191.86-191.86s85.93-192,191.86-192,191.95,85.93,191.95,192S1967.68,424.59,1861.65,424.59Z"/><path class="cls-2" d="M1861.65,161.07a20.39,20.39,0,0,0-20.39,20.4v102.9a20.4,20.4,0,1,0,40.79,0V181.47A20.4,20.4,0,0,0,1861.65,161.07Z"/></g></g></svg>