<?xml version="1.0" encoding="utf-8"?>
<!-- Generator: Adobe Illustrator 25.4.1, SVG Export Plug-In . SVG Version: 6.00 Build 0)  -->
<svg version="1.1" id="Layer_1" xmlns="http://www.w3.org/2000/svg" xmlns:xlink="http://www.w3.org/1999/xlink" x="0px" y="0px"
	 viewBox="0 0 399.6 399.6" style="enable-background:new 0 0 399.6 399.6;" xml:space="preserve">
<style type="text/css">
	.st0{fill:#2DBBAB;}
</style>
<g id="Layer_2_00000132807227610685687910000006982369015817115810_">
	<g id="Layer_1-2">
		<path class="st0" d="M199.8,2.9C91.1,2.9,3,91,3,199.6s88.1,196.8,196.8,196.8s196.8-88.1,196.8-196.8S308.4,2.9,199.8,2.9z
			 M199.8,361.9c-89.6,0-162.2-72.6-162.2-162.2c0,0,0,0,0,0c0-89.6,72.7-162.3,162.2-162.3c89.6-0.7,162.8,71.4,163.5,161
			s-71.4,162.8-161,163.5C201.5,361.9,200.6,361.9,199.8,361.9z"/>
		<path class="st0" d="M199.8,139c-9.5,0-17.2,7.7-17.2,17.2v87c0.3,9.5,8.3,17,17.8,16.7c9.1-0.3,16.3-7.6,16.7-16.7v-87
			C217,146.8,209.3,139.1,199.8,139z"/>
	</g>
</g>
</svg>
