<?xml version="1.0" encoding="utf-8"?>
<!-- Generator: Adobe Illustrator 25.4.1, SVG Export Plug-In . SVG Version: 6.00 Build 0)  -->
<svg version="1.1" id="Layer_1" xmlns="http://www.w3.org/2000/svg" xmlns:xlink="http://www.w3.org/1999/xlink" x="0px" y="0px"
	 viewBox="0 0 174 173" style="enable-background:new 0 0 174 173;" xml:space="preserve">
<style type="text/css">
	.st0{fill:url(#SVGID_1_);}
	.st1{fill:#2ED9C3;}
</style>
<desc>Created with Sketch.</desc>
<g id="Layer_2_00000096759871795242570680000004945275906282449835_">
	<g id="Layer_1-2">
		
			<linearGradient id="SVGID_1_" gradientUnits="userSpaceOnUse" x1="3.0857" y1="87.1429" x2="171.0286" y2="87.1429" gradientTransform="matrix(1 0 0 -1 0 174)">
			<stop  offset="0" style="stop-color:#2ED9C3"/>
			<stop  offset="0.11" style="stop-color:#33DAC4"/>
			<stop  offset="0.24" style="stop-color:#41DDC9"/>
			<stop  offset="0.37" style="stop-color:#59E1CF"/>
			<stop  offset="0.52" style="stop-color:#7AE7D9"/>
			<stop  offset="0.67" style="stop-color:#A5EFE5"/>
			<stop  offset="0.82" style="stop-color:#D8F8F4"/>
			<stop  offset="0.92" style="stop-color:#FFFFFF"/>
		</linearGradient>
		<path class="st0" d="M171,86.9c0,46.4-37.6,84-84,84s-84-37.6-84-84c0-6.4,0.7-12.8,2.2-19.1C14.2,29.8,48,2.9,87.1,2.9
			c4.2,0,7.6,3.4,7.6,7.6s-3.4,7.6-7.6,7.6c-30.6,0-57.5,20.2-66,49.6c-1.9,6.2-2.8,12.6-2.7,19.1c0,37.9,30.8,68.7,68.7,68.7
			s68.7-30.8,68.7-68.7c0-4.2,3.4-7.6,7.6-7.6C167.6,79.2,171,82.6,171,86.9z"/>
		<path class="st1" d="M94.7,10.5c0,4.2-3.4,7.6-7.6,7.6c-30.6,0-57.5,20.2-66,49.6H5.3C14.2,29.8,48,2.9,87.1,2.9
			C91.3,2.9,94.7,6.3,94.7,10.5z"/>
	</g>
</g>
</svg>
