<svg xmlns="http://www.w3.org/2000/svg" xmlns:xlink="http://www.w3.org/1999/xlink" viewBox="0 0 22 22"><defs><style>.cls-1{fill:url(#linear-gradient);}.cls-2{fill:#2ed9c3;}</style><linearGradient id="linear-gradient" y1="11" x2="22" y2="11" gradientUnits="userSpaceOnUse"><stop offset="0" stop-color="#2ed9c3"/><stop offset="0.11" stop-color="#33dac4"/><stop offset="0.24" stop-color="#41ddc9"/><stop offset="0.37" stop-color="#59e1cf"/><stop offset="0.52" stop-color="#7ae7d9"/><stop offset="0.67" stop-color="#a5efe5"/><stop offset="0.82" stop-color="#d8f8f4"/><stop offset="0.92" stop-color="#fff"/></linearGradient></defs><g id="Layer_2" data-name="Layer 2"><g id="Layer_1-2" data-name="Layer 1"><path class="cls-1" d="M22,11A11,11,0,0,1,0,11,10.83,10.83,0,0,1,.29,8.5,11,11,0,0,1,11,0a1,1,0,0,1,0,2A9,9,0,0,0,2.36,8.5,8.59,8.59,0,0,0,2,11a9,9,0,0,0,18,0,1,1,0,0,1,2,0Z"/><path class="cls-2" d="M12,1a1,1,0,0,1-1,1A9,9,0,0,0,2.36,8.5H.29A11,11,0,0,1,11,0,1,1,0,0,1,12,1Z"/></g></g></svg>