<svg xmlns="http://www.w3.org/2000/svg" viewBox="0 0 71.59 81.85"><defs><style>.cls-1{fill:#2ed9c3;}</style></defs><g id="Layer_2" data-name="Layer 2"><g id="Layer_1-2" data-name="Layer 1"><path class="cls-1" d="M57.37,28.44A14.22,14.22,0,1,0,43.15,14.22,14.23,14.23,0,0,0,57.37,28.44Zm0-23.7a9.48,9.48,0,1,1-9.48,9.48A9.49,9.49,0,0,1,57.37,4.74Z"/><path class="cls-1" d="M57.37,53.41A14.22,14.22,0,1,0,71.59,67.63,14.24,14.24,0,0,0,57.37,53.41Zm0,23.7a9.48,9.48,0,1,1,9.48-9.48A9.49,9.49,0,0,1,57.37,77.11Z"/><path class="cls-1" d="M14.22,26.7A14.23,14.23,0,1,0,28.44,40.93,14.24,14.24,0,0,0,14.22,26.7Zm0,23.71a9.49,9.49,0,1,1,9.48-9.48A9.49,9.49,0,0,1,14.22,50.41Z"/><path class="cls-1" d="M44.33,59.39a2,2,0,0,0-.69-2.74L30.09,48.54A2,2,0,1,0,28,52l13.56,8.11a1.91,1.91,0,0,0,1,.29A2,2,0,0,0,44.33,59.39Z"/><path class="cls-1" d="M29.06,34.37a2,2,0,0,0,1-.29L43.64,26a2,2,0,1,0-2-3.43L28,30.65a2,2,0,0,0,1,3.72Z"/></g></g></svg>