<?xml version="1.0" encoding="UTF-8"?>
<svg width="99px" height="18px" viewBox="0 0 99 18" version="1.1" xmlns="http://www.w3.org/2000/svg" xmlns:xlink="http://www.w3.org/1999/xlink">
    <title>0/logo/zoox_square</title>
    <defs>
        <filter id="filter-1">
            <feColorMatrix in="SourceGraphic" type="matrix" values="0 0 0 0 1.000000 0 0 0 0 1.000000 0 0 0 0 1.000000 0 0 0 1.000000 0"></feColorMatrix>
        </filter>
    </defs>
    <g id="Page-1" stroke="none" stroke-width="1" fill="none" fill-rule="evenodd">
        <g id="0-rotate" transform="translate(-35.000000, -90.000000)">
            <g id="0/logo/zoox_square" transform="translate(35.000000, 89.000000)" filter="url(#filter-1)">
                <g>
                    <path d="M17.2761713,1.13434832 C17.6208263,1.08375705 17.9692584,1.19773021 18.2173903,1.44222382 C18.4655222,1.68671742 18.5846294,2.03342809 18.5391343,2.37879277 L18.5391343,2.37879277 L18.5391343,3.91953351 C18.5267594,4.27540301 18.3638594,4.60928057 18.0909861,4.83805203 L18.0909861,4.83805203 L3.00580092,16.5491631 C2.98023044,16.5700883 2.9652992,16.6013081 2.96506018,16.6343483 L2.96506018,16.6343483 L2.96506018,16.6528668 C2.96506018,16.6815038 2.98827505,16.7047187 3.01691204,16.7047187 L3.01691204,16.7047187 L18.2280231,16.7047187 C18.3981976,16.7086323 18.5352207,16.8456553 18.5391343,17.0158298 L18.5391343,17.0158298 L18.5391343,18.6047187 C18.5332882,18.7734454 18.3968078,18.9083011 18.2280231,18.9121261 L18.2280231,18.9121261 L1.99468981,18.9121261 C1.65552272,18.9496786 1.31755668,18.8319011 1.07518741,18.5916895 C0.832818143,18.3514778 0.712023352,18.0145784 0.746541665,17.6750891 L0.746541665,17.6750891 L0.746541665,16.1676817 C0.758916538,15.8118122 0.921816474,15.4779346 1.19468981,15.2491631 L1.19468981,15.2491631 L16.279875,3.52323721 C16.3052965,3.50381481 16.3203307,3.47374639 16.3206157,3.44175573 L16.3206157,3.44175573 L16.3206157,3.40471869 C16.3206157,3.37608171 16.2974009,3.35286684 16.2687639,3.35286684 L16.2687639,3.35286684 L1.05765278,3.35286684 C0.887478277,3.34895324 0.750455262,3.21193023 0.746541665,3.04175573 L0.746541665,3.04175573 L0.746541665,1.44175573 C0.752387677,1.27302902 0.888868152,1.13817331 1.05765278,1.13434832 L1.05765278,1.13434832 Z M65.216912,1.13434832 C66.8206157,1.13434832 68.6354306,1.36768166 70.1946898,2.93064462 C71.7539491,4.49360758 71.9909861,6.30471869 71.9909861,7.9084224 C72.0058009,9.3084224 72.0058009,10.763978 71.9946898,12.138052 C71.9835787,13.7417557 71.7613565,15.5565705 70.1983935,17.1158298 C68.6354306,18.6750891 66.8243194,18.9121261 65.2206157,18.9121261 L65.2206157,18.9121261 L60.979875,18.9121261 C59.3724676,18.9121261 57.5576528,18.6899039 55.9983935,17.1269409 C54.4391343,15.563978 54.1983935,13.7528668 54.1983935,12.1491631 L54.1983935,12.1491631 L54.1983935,7.9084224 C54.2132083,6.30471869 54.4354306,4.48990388 55.9983935,2.93064462 C57.5613565,1.37138536 59.3724676,1.13434832 60.9761713,1.13434832 L60.9761713,1.13434832 Z M38.4909861,1.13434832 C40.0946898,1.13434832 41.9020972,1.36768166 43.4650602,2.93064462 C45.0280231,4.49360758 45.2650602,6.30471869 45.2650602,7.9084224 C45.2761713,9.3084224 45.2761713,10.763978 45.2650602,12.138052 C45.2502454,13.7417557 45.0243194,15.5565705 43.4650602,17.1158298 C41.9058009,18.6750891 40.0946898,18.9121261 38.4909861,18.9121261 L38.4909861,18.9121261 L34.2502454,18.9121261 C32.642838,18.9121261 30.8354306,18.6899039 29.2724676,17.1269409 C27.7095046,15.563978 27.4724676,13.7528668 27.4724676,12.1491631 L27.4724676,12.1491631 L27.4724676,7.9084224 C27.4872824,6.30471869 27.7095046,4.48990388 29.2724676,2.93064462 C30.8354306,1.37138536 32.642838,1.13434832 34.2502454,1.13434832 L34.2502454,1.13434832 Z M83.042838,1.1121261 C83.2143095,1.11827807 83.3765347,1.19141235 83.4946898,1.3158298 C85.5860478,3.66397795 87.6774059,6.00965697 89.7687639,8.35286684 C89.7988191,8.38155594 89.8461161,8.38155594 89.8761713,8.35286684 L96.1502454,1.3158298 C96.2688609,1.19206234 96.4308079,1.11905344 96.6020972,1.1121261 L98.6317269,1.1121261 C98.7357917,1.10263987 98.8343782,1.16035222 98.877051,1.2557384 C98.9197238,1.35112459 98.8970446,1.46308737 98.8206157,1.53434832 L91.2946898,9.98249647 C91.2730231,10.0095582 91.2730231,10.0480274 91.2946898,10.0750891 L98.7835787,18.4824965 C98.859251,18.5533377 98.882015,18.6642034 98.84038,18.7591312 C98.798745,18.8540591 98.7017651,18.9124055 98.5983935,18.9047187 L96.5687639,18.9047187 C96.3972001,18.8989621 96.234832,18.8257634 96.116912,18.701015 C94.0354306,16.3726199 91.9527145,14.0368175 89.8687639,11.6936076 C89.8387087,11.6649185 89.7914117,11.6649185 89.7613565,11.6936076 C87.6897515,14.0368175 85.6119738,16.3726199 83.5280231,18.701015 C83.4101032,18.8257634 83.2477351,18.8989621 83.0761713,18.9047187 L81.0502454,18.9047187 C80.9461805,18.9142049 80.847594,18.8564926 80.8049212,18.7611064 C80.7622485,18.6657202 80.7849277,18.5537574 80.8613565,18.4824965 L88.3502454,10.0750891 C88.3719121,10.0480274 88.3719121,10.0095582 88.3502454,9.98249647 C85.8440725,7.16521252 83.3354306,4.34916314 80.8243194,1.53434832 C80.7478906,1.46308737 80.7252114,1.35112459 80.7678842,1.2557384 C80.810557,1.16035222 80.9091434,1.10263987 81.0132083,1.1121261 L83.042838,1.1121261 Z M65.4465417,3.35286684 L60.7391343,3.35286684 C59.7132083,3.36397795 58.5613565,3.50471869 57.5650602,4.50101499 C56.5687639,5.49731129 56.416912,6.64916314 56.416912,7.67508906 L56.416912,7.67508906 L56.416912,12.3824965 C56.4280231,13.4084224 56.5687639,14.5602742 57.5650602,15.5565705 C58.5613565,16.5528668 59.7132083,16.7047187 60.7391343,16.7047187 L60.7391343,16.7047187 L65.4465417,16.7047187 C66.4724676,16.6936076 67.6243194,16.5528668 68.6206157,15.5565705 C69.616912,14.5602742 69.7687639,13.4084224 69.7687639,12.3824965 L69.7687639,12.3824965 C69.7872824,10.8343483 69.7872824,9.22323721 69.7687639,7.67508906 C69.7576528,6.64916314 69.616912,5.49731129 68.6206157,4.50101499 C67.6243194,3.50471869 66.4724676,3.35286684 65.4465417,3.35286684 L65.4465417,3.35286684 Z M38.7206157,3.35657055 L34.016912,3.35657055 C32.9909861,3.35657055 31.8317269,3.48990388 30.8391343,4.48620017 C29.8465417,5.48249647 29.6946898,6.63434832 29.6946898,7.66027425 L29.6946898,7.66027425 L29.6946898,12.3676817 C29.7058009,13.3936076 29.842838,14.5454594 30.8391343,15.5417557 C31.8354306,16.538052 32.9909861,16.6899039 34.016912,16.6899039 L34.016912,16.6899039 L38.7206157,16.6899039 C39.7465417,16.6899039 40.9020972,16.5528668 41.8983935,15.5565705 C42.8946898,14.5602742 43.042838,13.4084224 43.042838,12.3824965 C43.0613565,10.8343483 43.0613565,9.22323721 43.042838,7.67879277 C43.0354306,6.65286684 42.8946898,5.50101499 41.8983935,4.50471869 C40.9020972,3.5084224 39.7465417,3.35657055 38.7206157,3.35657055 L38.7206157,3.35657055 Z" id="Combined-Shape" fill="#231F20"></path>
                </g>
            </g>
        </g>
    </g>
</svg>