<svg width="13" height="12" viewBox="0 0 13 12" fill="none" xmlns="http://www.w3.org/2000/svg">
<path d="M9.97481 2.40355C10.3653 2.01302 10.3653 1.37986 9.97481 0.989333C9.58428 0.598809 8.95112 0.598809 8.56059 0.989333L1.48953 8.0604C1.099 8.45093 1.099 9.08409 1.48953 9.47461C1.88005 9.86514 2.51321 9.86514 2.90374 9.47461L9.97481 2.40355Z" fill="#6C6F73" fill-opacity="0.64"/>
<path d="M11.389 8.06041C11.7795 7.66988 11.7795 7.03672 11.389 6.64619C10.9985 6.25567 10.3653 6.25567 9.97478 6.64619L7.14635 9.47462C6.75583 9.86515 6.75583 10.4983 7.14635 10.8888C7.53688 11.2794 8.17004 11.2794 8.56056 10.8888L11.389 8.06041Z" fill="#6C6F73" fill-opacity="0.64"/>
</svg>
